<?xml version="1.0" encoding="UTF-8"?>
<svg width="512" height="512" viewBox="0 0 512 512" fill="none" xmlns="http://www.w3.org/2000/svg">
    <rect width="512" height="512" rx="100" fill="#2563eb"/>
    <path d="M256 128C238.327 128 224 142.327 224 160C224 177.673 238.327 192 256 192C273.673 192 288 177.673 288 160C288 142.327 273.673 128 256 128Z" fill="white"/>
    <path d="M384 256C384 238.327 369.673 224 352 224C334.327 224 320 238.327 320 256C320 273.673 334.327 288 352 288C369.673 288 384 273.673 384 256Z" fill="white"/>
    <path d="M160 224C142.327 224 128 238.327 128 256C128 273.673 142.327 288 160 288C177.673 288 192 273.673 192 256C192 238.327 177.673 224 160 224Z" fill="white"/>
    <path d="M256 320C238.327 320 224 334.327 224 352C224 369.673 238.327 384 256 384C273.673 384 288 369.673 288 352C288 334.327 273.673 320 256 320Z" fill="white"/>
    <path d="M256 192L352 224M352 288L256 320M256 320L160 288M160 224L256 192" stroke="white" stroke-width="16"/>
</svg>
